<svg width="21" height="21" viewBox="0 0 21 21" fill="none" xmlns="http://www.w3.org/2000/svg">
<path d="M19.8407 10.8443C19.6834 12.5465 19.0446 14.1687 17.999 15.521C16.9534 16.8734 15.5442 17.9001 13.9364 18.4808C12.3286 19.0615 10.5887 19.1724 8.92022 18.8004C7.25174 18.4283 5.72372 17.5888 4.51495 16.38C3.30618 15.1713 2.46666 13.6432 2.09463 11.9748C1.7226 10.3063 1.83344 8.56634 2.41418 6.95856C2.99493 5.35077 4.02155 3.94163 5.37393 2.89601C6.72632 1.8504 8.34852 1.21157 10.0507 1.05426C9.05413 2.40253 8.57457 4.06371 8.69925 5.73567C8.82394 7.40764 9.54458 8.97932 10.7301 10.1649C11.9157 11.3504 13.4873 12.071 15.1593 12.1957C16.8313 12.3204 18.4925 11.8408 19.8407 10.8443V10.8443Z" stroke="#828282" stroke-width="2" stroke-linecap="round" stroke-linejoin="round"/>
</svg>
